<svg xmlns="http://www.w3.org/2000/svg" width="128" height="128" viewBox="0 0 128 128">
  <rect width="100%" height="100%" fill="#e2e8f0"/><path fill="#94a3b8" d="m53.745 48.385-2.08-3.3q1.09-.96 2.39-1.82 1.29-.87 2.8-1.51 1.5-.64 3.26-1.01 1.76-.36 3.81-.36 2.78 0 5.07.76 2.29.77 3.92 2.2 1.63 1.42 2.53 3.44.89 2.01.89 4.51 0 2.43-.7 4.21-.7 1.77-1.76 3.08-1.06 1.32-2.32 2.28t-2.38 1.8q-1.12.85-1.94 1.67-.82.81-.98 1.84l-.73 4.67h-5.41l-.54-5.22q-.2-1.5.43-2.64.62-1.13 1.66-2.08 1.04-.94 2.32-1.82t2.4-1.92 1.87-2.34q.76-1.29.76-3.08 0-1.16-.44-2.07-.43-.91-1.2-1.57-.76-.65-1.84-1-1.07-.36-2.32-.36-1.82 0-3.08.4-1.27.4-2.15.9t-1.49.9q-.6.4-1.08.4-1.16 0-1.67-.96m3.97 34.43q0-.99.37-1.89t1.01-1.54 1.53-1.02q.9-.38 1.92-.38 1.03 0 1.91.38t1.53 1.02q.66.64 1.04 1.54.39.9.39 1.89 0 1.02-.39 1.9-.38.88-1.04 1.52-.65.64-1.53 1.01t-1.91.37q-1.02 0-1.92-.37-.89-.37-1.53-1.01t-1.01-1.52-.37-1.9"/>
</svg>